<svg class="icon" style="width: 200; height: 200;vertical-align: middle;fill: currentColor;overflow: hidden;" viewBox="0 0 1024 1024" version="1.1" xmlns="http://www.w3.org/2000/svg" p-id="1536"><path d="M517.97504 563.59936m-339.79904 0a339.79904 339.79904 0 1 0 679.59808 0 339.79904 339.79904 0 1 0-679.59808 0Z" fill="#00DFD5" p-id="1537" class="selected"></path><path d="M517.71392 910.50496c-159.80032 0-298.17344-108.5184-336.4864-263.88992-22.17472-89.94816-7.9872-183.1424 39.936-262.4256s123.84768-135.16288 213.79584-157.33248a348.3392 348.3392 0 0 1 83.29728-10.15808c159.79008 0 298.1632 108.50816 336.47616 263.87456 45.76256 185.6768-68.04992 373.98528-253.72672 419.76832a348.94848 348.94848 0 0 1-83.29216 10.1632z m0.5376-679.76192c-26.78784 0-53.6832 3.28192-79.93344 9.75872-86.30272 21.26848-159.15008 74.88512-205.14304 150.95808-45.9776 76.07296-59.58144 165.49376-38.2976 251.79648 36.75648 149.08416 169.51808 253.19936 322.8416 253.19936 26.7776 0 53.67296-3.28192 79.9232-9.75872 178.15552-43.92448 287.36512-224.60416 243.44064-402.7648-36.7616-149.0688-169.50784-253.18912-322.83136-253.18912z" fill="#6C0000" p-id="1538"></path><path d="M513.8432 375.43936c-235.5712-8.37632-487.89504 37.4272-491.49952 138.8288-3.60448 101.38112 244.82816 164.98688 480.39936 173.3632 235.5712 8.37632 487.89504-37.4272 491.49952-138.81344 3.60448-101.39648-244.82816-165.00224-480.39936-173.37856z m460.38016 172.66688c-2.31424 65.08032-204.16 130.78528-470.83008 121.30304-266.6752-9.48224-463.34464-89.34912-461.0304-154.43456 2.31424-65.08032 204.16-130.80576 470.8352-121.32352 266.67008 9.48224 463.33952 89.37472 461.02528 154.45504z" fill="#6B0306" p-id="1539"></path><path d="M238.34112 388.61312c-8.21248 10.04544-16.42496 26.32704-20.25472 34.39104 80.68608-18.41152 175.9744-24.2944 293.04832-20.13184 129.52064 4.60288 236.83072 21.36064 318.54592 49.41824-3.15904-8.7296-14.0032-31.38048-17.80736-39.71072-88.87296-26.496-188.37504-50.304-299.02336-54.23616-100.7104-3.57376-188.416 13.93152-274.5088 30.26944z" fill="#00DFD5" p-id="1540"></path><path d="M626.87232 659.15904m-87.51104 0a87.51104 87.51104 0 1 0 175.02208 0 87.51104 87.51104 0 1 0-175.02208 0Z" fill="#FFC700" p-id="1541"></path><path d="M626.95424 752.51712h-0.01024a92.75392 92.75392 0 0 1-68.39296-29.73696 92.7744 92.7744 0 0 1-24.9856-66.93888c1.82784-51.61472 44.45696-91.43296 96.62464-89.984 51.44064 1.82784 91.81184 45.16864 89.99424 96.62464a92.99456 92.99456 0 0 1-93.23008 90.0352z m-0.14848-175.01184a81.32608 81.32608 0 0 0-81.536 78.7456 81.1264 81.1264 0 0 0 21.85216 58.56256 81.07008 81.07008 0 0 0 56.84736 25.94304l2.9696 0.05632a81.32608 81.32608 0 0 0 81.536-78.7456c1.60256-45.00992-33.70496-82.9184-78.69952-84.5056l-2.9696-0.05632z" fill="#6C0000" p-id="1542"></path><path d="M805.81632 274.75968m-18.6112 0a18.6112 18.6112 0 1 0 37.2224 0 18.6112 18.6112 0 1 0-37.2224 0Z" fill="#FFC700" p-id="1543"></path><path d="M805.8112 299.22816l-0.85504-0.01024a24.4992 24.4992 0 0 1-23.58784-25.32864 24.3712 24.3712 0 0 1 24.43776-23.58784c14.36672 0.49152 24.94976 11.8528 24.46848 25.32864a24.3968 24.3968 0 0 1-24.46336 23.59808z m0.43008-37.21728c-7.3472 0-12.93824 5.39648-13.17888 12.288a12.7744 12.7744 0 0 0 12.29824 13.2096l0.44544 5.8624v-5.85216a12.70784 12.70784 0 0 0 12.75392-12.30848 12.76928 12.76928 0 0 0-12.29824-13.19936h-0.02048z" fill="#6C0000" p-id="1544"></path><path d="M116.06016 418.21184m-46.14144 0a46.14144 46.14144 0 1 0 92.28288 0 46.14144 46.14144 0 1 0-92.28288 0Z" fill="#FFC700" p-id="1545"></path><path d="M116.10624 470.20544h-0.01024l-1.88416-0.03584c-28.65152-1.01888-51.13344-25.15456-50.11456-53.80608a51.82464 51.82464 0 0 1 51.93216-50.1504l1.87392 0.03584a51.72736 51.72736 0 0 1 36.20864 16.5376 51.64032 51.64032 0 0 1 13.91104 37.26848 51.80416 51.80416 0 0 1-51.9168 50.1504z m-0.08192-92.288a40.14592 40.14592 0 0 0-40.23296 38.8608c-0.78848 22.20544 16.62976 40.90368 38.82496 41.69216l1.47456 0.03584a40.11008 40.11008 0 0 0 40.2176-38.8608 40.01792 40.01792 0 0 0-10.76736-28.89216 40.07424 40.07424 0 0 0-28.0576-12.8l-1.4592-0.03584z" fill="#6C0000" p-id="1546"></path><path d="M382.47936 368.95232s-35.01056 51.00544 40.39168 150.60992l45.47072-89.51808-85.8624-61.09184z" fill="#BED5E9" p-id="1547"></path><path d="M424.05376 532.74624l-6.77888-8.94976c-77.568-102.46144-42.12736-156.5696-40.576-158.81728l4.03456-5.888 96.6144 68.736-53.29408 104.91904z m-38.74816-153.15968c-5.39648 15.51872-12.14976 58.11712 36.48 126.61248l37.54496-73.9328-74.02496-52.67968z" fill="#6C0000" p-id="1548"></path><path d="M536.63232 263.63392s60.24704-14.07488 125.6192 92.38016l-99.92192 9.81504-25.69728-102.1952z" fill="#BED5E9" p-id="1549"></path><path d="M556.99456 373.4016l-28.91776-114.97984 6.94784-1.62304c0.57856-0.13312 3.70688-0.79872 9.0112-0.79872 19.55328 0 70.81472 9.38496 124.2112 96.32256l5.87264 9.56416-117.12512 11.51488z m-11.50976-103.34208l22.18496 88.18688 82.53952-8.1152c-45.94176-70.02624-87.29088-79.5904-104.72448-80.07168z" fill="#6C0000" p-id="1550"></path><path d="M519.51616 238.99648C459.2128 150.72768 375.90528 102.68672 333.44 131.69664s-27.99616 124.0832 32.3072 212.352c39.27552 57.48736 88.30464 97.88416 129.45408 111.07328l0.00512-0.02048c0.24576 0.12288 0.512 0.2304 0.82944 0.27136 1.41824 0.1792 21.20192-51.49696 76.73344-52.15744a3.29728 3.29728 0 0 0 1.80736-0.59392 3.1744 3.1744 0 0 0 1.35168-1.9456 2.11456 2.11456 0 0 0-0.01024-0.76288c2.66752-43.12576-17.14176-103.45472-56.40192-160.91648z" fill="#BED5E9" p-id="1551"></path><path d="M496.05632 462.3872h-0.03584l-1.97632-0.16896-1.97632-0.8448c-43.38688-13.78304-93.14816-56.32512-132.11136-113.3568-29.75232-43.5456-49.58208-90.17856-55.84384-131.30752-6.528-42.92608 2.47808-75.17184 25.35936-90.8032 9.40544-6.4256 20.65408-9.68192 33.41824-9.68192 48.59904 0 113.8688 47.73888 162.42176 118.80448 38.74304 56.70912 60.26752 118.16448 57.67168 164.59264l0.08192 0.54784-0.27648 1.98656c-0.44544 2.39104-2.00192 4.73088-4.23936 6.26176-1.78176 1.1776-3.70176 1.78176-5.64736 1.8176-28.94848 0.34304-52.14208 15.74912-68.96128 45.78304-1.82784 3.28704-3.56352 6.36928-7.8848 6.36928zM362.89536 130.26816c-9.88672 0-18.46784 2.432-25.48736 7.22432-18.19648 12.42112-25.07776 39.808-19.4048 77.10208 5.94432 39.08608 24.96 83.6608 53.54496 125.4912 35.39456 51.81952 81.48992 92.27776 121.42592 106.83904 18.65216-32.05632 44.24192-49.0752 76.1088-50.62144 1.43872-42.60864-19.56864-100.9664-55.35232-153.344-45.34272-66.3552-107.37152-112.6912-150.8352-112.6912z" fill="#6C0000" p-id="1552"></path><path d="M542.6176 283.89888L396.19584 382.84288a336.19968 336.19968 0 0 0 18.07872 17.77664L552.51968 307.2a335.616 335.616 0 0 0-9.90208-23.30112z" fill="#FFFFFF" p-id="1553"></path><path d="M413.62944 409.51808l-4.08064-3.70176a340.10624 340.10624 0 0 1-18.4576-18.1504l-5.66784-6.01088 160.06656-108.16512 3.48672 7.42912a334.28992 334.28992 0 0 1 10.10176 23.79776l1.97632 5.20192-147.42528 99.59936z m-6.57408-25.54368a316.34944 316.34944 0 0 0 7.89504 7.7056l128.97792-87.14752a316.28288 316.28288 0 0 0-4.26496-10.15808l-132.608 89.6z" fill="#6C0000" p-id="1554"></path><path d="M565.84704 332.26752l-130.048 88.84736a84.11136 84.11136 0 0 0 18.2272 12.30848l117.08928-79.04256c-0.47616-6.13376-3.10784-16.31744-5.26848-22.11328z" fill="#FFFFFF" p-id="1555"></path><path d="M454.6048 441.50784l-3.64544-1.78176a90.51136 90.51136 0 0 1-19.82976-13.37344l-6.69696-5.97504 144.86528-98.96448 3.13344 8.40192c2.37568 6.4 5.15584 17.13152 5.69344 24.02304l0.3072 4.0704L454.6048 441.50784z m-6.9376-19.98848c1.93024 1.34656 3.93216 2.60608 5.91872 3.72736l110.0032-74.2656c-0.4096-2.34496-0.99328-4.97152-1.65888-7.53152L447.6672 421.51936z" fill="#6C0000" p-id="1556"></path><path d="M412.01664 246.88128m-39.89504 0a39.89504 39.89504 0 1 0 79.79008 0 39.89504 39.89504 0 1 0-79.79008 0Z" fill="#ECF3FE" p-id="1557"></path><path d="M412.06272 293.79584c-0.8704 0-1.73568-0.02048-2.61632-0.08192a46.60224 46.60224 0 0 1-32.36864-15.51872 46.57664 46.57664 0 0 1-11.89888-33.88928c1.39264-25.728 23.35232-45.95712 49.408-44.26752a46.60224 46.60224 0 0 1 32.36864 15.53408 46.57664 46.57664 0 0 1 11.89888 33.88928 46.8736 46.8736 0 0 1-46.79168 44.33408z m-0.09216-79.78496a32.84992 32.84992 0 0 0-32.77824 31.06304 32.60416 32.60416 0 0 0 8.3456 23.73632 32.60416 32.60416 0 0 0 22.67648 10.89024l1.85344 0.04608a32.84992 32.84992 0 0 0 32.77824-31.0528 32.6656 32.6656 0 0 0-8.3456-23.75168 32.72704 32.72704 0 0 0-22.68672-10.89024l-1.8432-0.04096z" fill="#6C0000" p-id="1558"></path><path d="M381.3632 233.20064c6.20032-10.61888 19.54304-14.52544 32.50688-12.35456 28.28288 4.74112 29.50656 38.58432 28.1856 41.89696a33.8432 33.8432 0 0 0-60.69248-29.5424z" fill="#BED5E9" p-id="1559"></path></svg>